<svg width="26" height="26" viewBox="0 0 26 26" fill="none" xmlns="http://www.w3.org/2000/svg">
<path d="M25.8621 13.0111C25.8621 5.8233 20.0698 0 12.931 0C5.78745 0 0 5.8233 0 13.0111C0 19.5037 4.7271 24.8871 10.9106 25.8621V16.773H7.62689V13.012H10.9106V10.1438C10.9106 6.88371 12.8381 5.08329 15.7928 5.08329C17.208 5.08329 18.6894 5.33701 18.6894 5.33701V8.53856H17.056C15.4526 8.53856 14.9515 9.54286 14.9515 10.5715V13.0111H18.5375L17.9612 16.7722H14.9515V25.8613C21.1301 24.8862 25.8621 19.5029 25.8621 13.0103V13.0111Z" fill="#227BEF"/>
</svg>
