<svg width="27" height="26" viewBox="0 0 27 26" fill="none" xmlns="http://www.w3.org/2000/svg">
<path d="M13.5505 0C6.40884 0 0.619507 5.78933 0.619507 12.931C0.619507 20.0727 6.40884 25.8621 13.5505 25.8621C20.6922 25.8621 26.4816 20.0727 26.4816 12.931C26.4816 5.78933 20.6922 0 13.5505 0ZM10.3851 18.2907H7.7666V9.86396H10.3851V18.2907ZM9.0597 8.82947C8.23265 8.82947 7.6979 8.24354 7.6979 7.51886C7.6979 6.77937 8.24882 6.21094 9.09338 6.21094C9.93793 6.21094 10.4552 6.77937 10.4713 7.51886C10.4713 8.24354 9.93793 8.82947 9.0597 8.82947ZM19.9487 18.2907H17.3302V13.6207C17.3302 12.5337 16.9503 11.7955 16.0034 11.7955C15.2801 11.7955 14.8504 12.2953 14.6605 12.7761C14.5904 12.9472 14.5729 13.1897 14.5729 13.4308V18.2893H11.953V12.5512C11.953 11.4992 11.9193 10.6196 11.8843 9.86261H14.1594L14.2793 11.0331H14.3318C14.6766 10.4836 15.5212 9.67268 16.9342 9.67268C18.657 9.67268 19.9487 10.8271 19.9487 13.3082V18.2907Z" fill="#1178B3"/>
</svg>
