<svg width="27" height="26" viewBox="0 0 27 26" fill="none" xmlns="http://www.w3.org/2000/svg">
<path d="M13.1379 0C5.99701 0 0.206909 5.7901 0.206909 12.931C0.206909 20.072 5.99701 25.8621 13.1379 25.8621C20.2789 25.8621 26.069 20.072 26.069 12.931C26.069 5.7901 20.2789 0 13.1379 0ZM19.3524 9.74735C19.361 9.88301 19.361 10.0244 19.361 10.163C19.361 14.4002 16.134 19.2811 10.2371 19.2811C8.4187 19.2811 6.73304 18.7529 5.31294 17.8437C5.57271 17.8725 5.82094 17.8841 6.08649 17.8841C7.58741 17.8841 8.96711 17.3761 10.0668 16.5159C8.65827 16.4871 7.47484 15.5634 7.07075 14.2934C7.56432 14.3656 8.00883 14.3656 8.51683 14.2357C7.79156 14.0883 7.13966 13.6944 6.6719 13.1209C6.20413 12.5474 5.94935 11.8296 5.95083 11.0895V11.0491C6.37513 11.2887 6.87448 11.4359 7.39691 11.4561C6.95773 11.1634 6.59755 10.7669 6.34832 10.3016C6.09909 9.83639 5.9685 9.31685 5.96815 8.78906C5.96815 8.19158 6.12401 7.64605 6.40399 7.17269C7.20902 8.16369 8.21356 8.9742 9.35234 9.55155C10.4911 10.1289 11.7386 10.4602 13.0138 10.5238C12.5607 8.34456 14.1886 6.58097 16.1456 6.58097C17.0692 6.58097 17.9005 6.96775 18.4864 7.59121C19.2109 7.45555 19.9037 7.18423 20.5213 6.82054C20.2818 7.56235 19.7795 8.18869 19.1128 8.58413C19.7593 8.51486 20.3828 8.3359 20.9601 8.08479C20.5242 8.72556 19.9787 9.29418 19.3524 9.74735Z" fill="#2BA3EF"/>
</svg>
